<svg version="1.2" xmlns="http://www.w3.org/2000/svg" viewBox="0 0 180 180" width="180" height="180"><style>.a{fill:#a6a44a}</style><path class="a" d="m44.6 134.3q-11.8 0-18.1-8.5-6.4-8.6-6.4-25.6 0-19.2 7.5-33.2 7.5-14.2 18.7-21.6 11.4-7.4 22.2-7.4 7 0 12.3 2.8 5.4 2.7 5.4 8.2 0 3.9-3.1 8.7-0.9 1-1.4 1.6-0.5 0.4-1.3 0.4-1 0-1.4-0.8-0.4-1-0.5-2.2-0.2-1.2-0.3-1.7-0.8-4.6-4.3-7.2-3.4-2.7-9.6-2.7-10.9 0-18.4 8.4-7.3 8.2-10.9 20.4-3.5 12.1-3.5 23.6 0 13.1 4.8 20.2 4.9 7.2 13.8 7.2 7.3 0 13.7-4.7 6.4-4.8 10.8-13.5 0.8-1.5 1.6-1.5 0.6 0 0.6 1.5 0 0.8-0.1 1.6-0.1 0.8-0.3 1.2-2 7.2-6.7 12.8-4.7 5.7-11.3 8.9-6.7 3.1-13.8 3.1zm-3.6 0q-11.7 0-18.1-8.5-6.3-8.6-6.3-25.6 0-19.2 7.4-33.2 7.6-14.2 18.8-21.6 11.3-7.4 22.1-7.4 7 0 12.3 2.8 5.4 2.7 5.4 8.2 0 3.9-3.1 8.7-0.8 1.1-1.3 1.6-0.6 0.4-1.4 0.4-0.9 0-1.3-0.8-0.5-1-0.6-2.2-0.1-1.2-0.3-1.7-0.8-4.6-4.3-7.2-3.4-2.7-9.6-2.7-10.9 0-18.3 8.4-7.3 8.2-11 20.4-3.5 12.1-3.5 23.6 0 13.1 4.9 20.2 4.9 7.2 13.8 7.2 7.3 0 13.6-4.7 6.5-4.7 10.8-13.5 0.8-1.5 1.6-1.5 0.7 0 0.7 1.5 0 0.8-0.1 1.6-0.2 0.8-0.3 1.2-2 7.2-6.8 12.8-4.7 5.7-11.3 8.9-6.6 3.1-13.8 3.1zm113.1 0q-3.5 0-6.2-2.4-2.6-2.5-4.4-7.8l-8.1-21.9q-1.5-4.2-3.2-6.2-1.4-2-4.4-3-2.8-1-8.2-1l-4.4 26.2q-0.6 3.5-2.5 5.6v0.2q0.6 0.2 2 0.8 1.5 0.4 2.7 0.4 1.8 0 3.4-0.7 1.6-0.8 2.1-0.8 0.8 0 0.8 0.8 0 1.2-1.6 3-5.1 5.5-8.2 5.5-1.1 0-4.6-1.1-3.9-1.2-5.4-1.2-2.2 0-4.5 1.2-2.1 1.1-2.4 1.1-0.7 0-0.7-1.3 0-1.5 0.7-2.8 0.7-1.2 2.3-2.8 3.1-2.8 4.1-4 0.9-1.4 1.4-3.5 0.6-2.2 1.7-8.8l8.2-48.1q0.5-3.4 4.6-6.7 4.2-3.4 7.4-3.4 1.4 0 1.4 0.7 0 0.4-1.4 2.3-1.2 1.7-1.9 6.3l-3.8 24.4q1.8 0.5 6.4 0.5 9.6 0 15-5.9 5.5-5.9 5.5-15.9 0-18.7-20.6-18.7-16.5 0-27.2 11.8-1.1 1.2-1.9 2.1-0.8 0.8-1.6 0.8-0.8 0-0.8-1 0-0.8 0.1-1.5 1.2-4.7 6.1-9.1 4.9-4.6 12.6-7.5 7.7-2.9 17-2.9 12.5 0 19.5 5.6 7.2 5.7 7.2 16.1 0 10.4-6.7 18.4-6.7 7.9-17.1 11 7.3 2.3 10.6 10.7l6.7 18.4q1.4 3.3 2.7 4.9 1.5 1.5 3.8 1.5 3.2 0 6.3-3.5 0.6-0.7 1.1-1.5 0.7-0.8 1.2-0.8 1.1 0 1.1 1.8 0 3.2-2.1 6.5-2.1 3.2-5.3 5.2-3.2 2.1-6.5 2.1zm-3.5 0q-3.5 0-6.2-2.5-2.6-2.5-4.5-7.8l-8.1-21.9q-1.5-4.2-3.1-6.2-1.5-2-4.5-3-2.8-1-8.2-1l-4.3 26.2q-0.7 3.5-2.6 5.6v0.2q0.7 0.2 2 0.8 1.5 0.4 2.7 0.4 1.8 0 3.4-0.7 1.6-0.8 2.2-0.8 0.8 0 0.8 0.8 0 1.2-1.6 3-5.2 5.5-8.3 5.5-1 0-4.6-1.1-3.9-1.2-5.4-1.2-2.1 0-4.4 1.2-2.2 1.1-2.4 1.1-0.7 0-0.7-1.3 0-1.5 0.7-2.8 0.6-1.2 2.3-2.8 3.1-2.8 4-4 0.9-1.4 1.5-3.5 0.5-2.2 1.6-8.8l8.2-48.1q0.6-3.4 4.6-6.7 4.2-3.4 7.5-3.4 1.3 0 1.3 0.7 0 0.4-1.3 2.3-1.3 1.7-1.9 6.3l-3.8 24.4q1.7 0.5 6.3 0.5 9.6 0 15-5.9 5.6-5.9 5.6-15.9 0-18.7-20.7-18.7-16.5 0-27.1 11.8-1.1 1.2-1.9 2.1-0.8 0.8-1.6 0.8-0.9 0-0.9-1 0-0.8 0.2-1.5 1.2-4.7 6.1-9.1 4.8-4.6 12.5-7.5 7.7-2.9 17-2.9 12.6 0 19.6 5.6 7.1 5.7 7.1 16.1 0 10.4-6.7 18.4-6.6 7.9-17 11 7.3 2.3 10.5 10.7l6.8 18.4q1.3 3.3 2.7 4.9 1.5 1.5 3.7 1.5 3.3 0 6.4-3.5 0.5-0.7 1.1-1.5 0.6-0.8 1.2-0.8 1.1 0 1.1 1.8 0 3.2-2.2 6.5-2 3.2-5.3 5.2-3.2 2.1-6.4 2.1z"/></svg>